<svg width="262" height="262" viewBox="32 32 200 200" fill="none" xmlns="http://www.w3.org/2000/svg">
<path d="M76.0479 205.298C93.9698 220.336 117.394 227.327 141.166 224.732C164.939 222.137 187.113 210.17 202.811 191.462C218.509 172.754 226.444 148.838 224.872 124.976C223.299 101.114 212.347 79.2597 194.425 64.2214L187.405 85.0697L167.69 96.0828C177.517 104.328 183.522 116.311 184.384 129.395C185.247 142.479 180.896 155.592 172.288 165.85C163.681 176.108 151.523 182.67 138.488 184.092C125.453 185.515 112.61 181.682 102.783 173.437L83.1074 184.279L76.0479 205.298Z" fill="#B2CFEB"/>
<path d="M190.558 60.567C171.415 44.5036 146.819 36.5299 122.183 38.3999C97.5462 40.2699 74.8866 51.8304 59.1887 70.5383C43.4909 89.2463 36.0408 113.569 38.4774 138.156C40.9139 162.743 53.0373 185.58 72.1809 201.644L78.954 180.488L98.9158 169.782C88.4192 160.974 81.7719 148.453 80.4359 134.971C79.1 121.49 83.1849 108.154 91.7922 97.8959C100.399 87.6381 112.824 81.2994 126.332 80.2741C139.841 79.2487 153.327 83.6207 163.823 92.4284L183.922 81.9414L190.558 60.567Z" fill="#01006B"/>
</svg>
